<svg xmlns="http://www.w3.org/2000/svg" width="1200" height="720" viewBox="0 0 1200 720">
  <defs>
    <filter id="s"><feDropShadow dx="0" dy="5" stdDeviation="7" flood-color="#1d3557" flood-opacity=".15"/></filter>
    <marker id="arrow" markerWidth="10" markerHeight="10" refX="9" refY="3" orient="auto"><path d="M0,0 L0,6 L9,3 z" fill="#2b5f8a"/></marker>
  </defs>
  <rect width="1200" height="720" fill="#fff"/>
  <text x="50" y="56" font-family="Segoe UI, Arial" font-size="30" font-weight="700" fill="#18324a">Automation Mechanisms and Governance Outcomes</text>
  <g font-family="Segoe UI, Arial" filter="url(#s)">
    <rect x="70" y="110" width="240" height="135" rx="18" fill="#edf5ff" stroke="#a9c7e8"/>
    <text x="100" y="150" font-size="20" font-weight="700" fill="#18324a">Event-driven</text>
    <text x="100" y="182" font-size="15" fill="#45556a">HR joiner/mover/leaver</text>
    <text x="100" y="206" font-size="15" fill="#45556a">Project approval</text>
    <text x="100" y="230" font-size="15" fill="#45556a">Legal hold trigger</text>
    <rect x="70" y="305" width="240" height="135" rx="18" fill="#f6fbf4" stroke="#b8d9ad"/>
    <text x="100" y="345" font-size="20" font-weight="700" fill="#18324a">Policy-based</text>
    <text x="100" y="377" font-size="15" fill="#45556a">Retention rules</text>
    <text x="100" y="401" font-size="15" fill="#45556a">DLP conditions</text>
    <text x="100" y="425" font-size="15" fill="#45556a">Conditional Access</text>
    <rect x="70" y="500" width="240" height="135" rx="18" fill="#fff8ec" stroke="#edc985"/>
    <text x="100" y="540" font-size="20" font-weight="700" fill="#18324a">Scheduled</text>
    <text x="100" y="572" font-size="15" fill="#45556a">Access reviews</text>
    <text x="100" y="596" font-size="15" fill="#45556a">Guest recertification</text>
    <text x="100" y="620" font-size="15" fill="#45556a">Inactive site scans</text>
    <rect x="455" y="245" width="290" height="205" rx="22" fill="#f4f1ff" stroke="#c9bdf1"/>
    <text x="500" y="295" font-size="24" font-weight="700" fill="#18324a">Automation Engine</text>
    <text x="500" y="330" font-size="16" fill="#45556a">Power Automate</text>
    <text x="500" y="360" font-size="16" fill="#45556a">Microsoft Graph</text>
    <text x="500" y="390" font-size="16" fill="#45556a">Logic Apps / Azure Automation</text>
    <text x="500" y="420" font-size="16" fill="#45556a">Lifecycle Workflows</text>
    <rect x="890" y="125" width="240" height="110" rx="18" fill="#eefaf9" stroke="#95d2cc"/>
    <text x="920" y="165" font-size="20" font-weight="700" fill="#18324a">Security</text>
    <text x="920" y="197" font-size="15" fill="#45556a">Least privilege, MFA, PIM</text>
    <rect x="890" y="305" width="240" height="110" rx="18" fill="#fff2f6" stroke="#eeb3c6"/>
    <text x="920" y="345" font-size="20" font-weight="700" fill="#18324a">Compliance</text>
    <text x="920" y="377" font-size="15" fill="#45556a">Retention, records, audit</text>
    <rect x="890" y="485" width="240" height="110" rx="18" fill="#f5f5f5" stroke="#c9c9c9"/>
    <text x="920" y="525" font-size="20" font-weight="700" fill="#18324a">Efficiency</text>
    <text x="920" y="557" font-size="15" fill="#45556a">Fewer tickets, faster flow</text>
  </g>
  <g stroke="#2b5f8a" stroke-width="4" marker-end="url(#arrow)" fill="none">
    <line x1="310" y1="178" x2="450" y2="295"/>
    <line x1="310" y1="373" x2="450" y2="355"/>
    <line x1="310" y1="568" x2="450" y2="415"/>
    <line x1="750" y1="300" x2="885" y2="180"/>
    <line x1="750" y1="350" x2="885" y2="360"/>
    <line x1="750" y1="405" x2="885" y2="540"/>
  </g>
</svg>
